<?xml version="1.0" encoding="UTF-8" standalone="no"?>
<!-- Created with Inkscape (http://www.inkscape.org/) -->

<svg
   xmlns:dc="http://purl.org/dc/elements/1.1/"
   xmlns:cc="http://creativecommons.org/ns#"
   xmlns:rdf="http://www.w3.org/1999/02/22-rdf-syntax-ns#"
   xmlns:svg="http://www.w3.org/2000/svg"
   xmlns="http://www.w3.org/2000/svg"
   xmlns:sodipodi="http://sodipodi.sourceforge.net/DTD/sodipodi-0.dtd"
   xmlns:inkscape="http://www.inkscape.org/namespaces/inkscape"
   width="316.24908mm"
   height="63.500195mm"
   viewBox="0 0 316.24908 63.500195"
   version="1.1"
   id="svg8"
   inkscape:version="0.92.1 r15371"
   sodipodi:docname="App Icon and Banner.svg">
  <defs
     id="defs2" />
  <sodipodi:namedview
     id="base"
     pagecolor="#ffffff"
     bordercolor="#666666"
     borderopacity="1.0"
     inkscape:pageopacity="0.0"
     inkscape:pageshadow="2"
     inkscape:zoom="1.1821576"
     inkscape:cx="597.63607"
     inkscape:cy="120.00037"
     inkscape:document-units="mm"
     inkscape:current-layer="layer1"
     showgrid="false"
     inkscape:snap-global="false"
     inkscape:object-paths="true"
     inkscape:snap-center="true"
     fit-margin-top="0"
     fit-margin-left="0"
     fit-margin-right="0"
     fit-margin-bottom="0"
     inkscape:window-width="1920"
     inkscape:window-height="1017"
     inkscape:window-x="-8"
     inkscape:window-y="-8"
     inkscape:window-maximized="1" />
  <metadata
     id="metadata5">
    <rdf:RDF>
      <cc:Work
         rdf:about="">
        <dc:format>image/svg+xml</dc:format>
        <dc:type
           rdf:resource="http://purl.org/dc/dcmitype/StillImage" />
        <dc:title></dc:title>
      </cc:Work>
    </rdf:RDF>
  </metadata>
  <g
     inkscape:label="Layer 1"
     inkscape:groupmode="layer"
     id="layer1"
     transform="translate(85.194577,-66.535207)">
    <g
       id="g4862"
       transform="translate(289.85596,-80.71053)"
       inkscape:export-xdpi="245.83"
       inkscape:export-ydpi="245.83">
      <rect
         y="147.24583"
         x="-281.98187"
         height="63.5"
         width="223.18042"
         id="rect4798"
         style="opacity:1;fill:#6eebcb;fill-opacity:1;fill-rule:nonzero;stroke:none;stroke-width:8.88999939;stroke-linecap:butt;stroke-linejoin:round;stroke-miterlimit:4;stroke-dasharray:none;stroke-opacity:1" />
      <g
         transform="translate(11.145506,3.0540906)"
         style="fill:#000000;stroke:none;stroke-width:0.63499999;stroke-miterlimit:4;stroke-dasharray:none"
         id="g4824">
        <path
           inkscape:connector-curvature="0"
           id="path4814"
           d="m -134.49609,171.16016 v 18.20312 c 0,7.28793 5.72804,13.54688 13.01171,13.54688 7.28369,0 13.01368,-6.25895 13.01368,-13.54688 v -18.20312 h -8.89063 v 18.20312 c 0,2.76549 -1.94355,4.65625 -4.12305,4.65625 -2.17948,0 -4.12109,-1.89074 -4.12109,-4.65625 v -18.20312 z"
           style="color:#000000;font-style:normal;font-variant:normal;font-weight:normal;font-stretch:normal;font-size:medium;line-height:normal;font-family:sans-serif;font-variant-ligatures:normal;font-variant-position:normal;font-variant-caps:normal;font-variant-numeric:normal;font-variant-alternates:normal;font-feature-settings:normal;text-indent:0;text-align:start;text-decoration:none;text-decoration-line:none;text-decoration-style:solid;text-decoration-color:#000000;letter-spacing:normal;word-spacing:normal;text-transform:none;writing-mode:lr-tb;direction:ltr;text-orientation:mixed;dominant-baseline:auto;baseline-shift:baseline;text-anchor:start;white-space:normal;shape-padding:0;clip-rule:nonzero;display:inline;overflow:visible;visibility:visible;opacity:1;isolation:auto;mix-blend-mode:normal;color-interpolation:sRGB;color-interpolation-filters:linearRGB;solid-color:#000000;solid-opacity:1;vector-effect:none;fill:#000000;fill-opacity:1;fill-rule:nonzero;stroke:none;stroke-width:0.63499999;stroke-linecap:butt;stroke-linejoin:miter;stroke-miterlimit:4;stroke-dasharray:none;stroke-dashoffset:0;stroke-opacity:1;color-rendering:auto;image-rendering:auto;shape-rendering:auto;text-rendering:auto;enable-background:accumulate" />
        <path
           inkscape:connector-curvature="0"
           id="path4816"
           d="m -100.30078,147.37695 v 54.61133 h 8.890624 v -54.61133 z"
           style="color:#000000;font-style:normal;font-variant:normal;font-weight:normal;font-stretch:normal;font-size:medium;line-height:normal;font-family:sans-serif;font-variant-ligatures:normal;font-variant-position:normal;font-variant-caps:normal;font-variant-numeric:normal;font-variant-alternates:normal;font-feature-settings:normal;text-indent:0;text-align:start;text-decoration:none;text-decoration-line:none;text-decoration-style:solid;text-decoration-color:#000000;letter-spacing:normal;word-spacing:normal;text-transform:none;writing-mode:lr-tb;direction:ltr;text-orientation:mixed;dominant-baseline:auto;baseline-shift:baseline;text-anchor:start;white-space:normal;shape-padding:0;clip-rule:nonzero;display:inline;overflow:visible;visibility:visible;opacity:1;isolation:auto;mix-blend-mode:normal;color-interpolation:sRGB;color-interpolation-filters:linearRGB;solid-color:#000000;solid-opacity:1;vector-effect:none;fill:#000000;fill-opacity:1;fill-rule:nonzero;stroke:none;stroke-width:0.63499999;stroke-linecap:butt;stroke-linejoin:miter;stroke-miterlimit:4;stroke-dasharray:none;stroke-dashoffset:0;stroke-opacity:1;color-rendering:auto;image-rendering:auto;shape-rendering:auto;text-rendering:auto;enable-background:accumulate" />
        <path
           inkscape:connector-curvature="0"
           style="color:#000000;font-style:normal;font-variant:normal;font-weight:normal;font-stretch:normal;font-size:medium;line-height:normal;font-family:sans-serif;font-variant-ligatures:normal;font-variant-position:normal;font-variant-caps:normal;font-variant-numeric:normal;font-variant-alternates:normal;font-feature-settings:normal;text-indent:0;text-align:start;text-decoration:none;text-decoration-line:none;text-decoration-style:solid;text-decoration-color:#000000;letter-spacing:normal;word-spacing:normal;text-transform:none;writing-mode:lr-tb;direction:ltr;text-orientation:mixed;dominant-baseline:auto;baseline-shift:baseline;text-anchor:start;white-space:normal;shape-padding:0;clip-rule:nonzero;display:inline;overflow:visible;visibility:visible;opacity:1;isolation:auto;mix-blend-mode:normal;color-interpolation:sRGB;color-interpolation-filters:linearRGB;solid-color:#000000;solid-opacity:1;vector-effect:none;fill:#000000;fill-opacity:1;fill-rule:nonzero;stroke:none;stroke-width:2.4000001;stroke-linecap:butt;stroke-linejoin:round;stroke-miterlimit:4;stroke-dasharray:none;stroke-dashoffset:0;stroke-opacity:1;color-rendering:auto;image-rendering:auto;shape-rendering:auto;text-rendering:auto;enable-background:accumulate"
           d="m -698.23047,640.01758 v 54.5957 68.80664 h 33.60156 v -55.72461 c 4.6e-4,-16.35466 7.65534,-29.61208 17.09766,-29.61133 9.44152,10e-4 17.09521,13.25803 17.0957,29.61133 v 55.72461 h 33.59571 v -55.72461 c 4.5e-4,-16.35466 7.65533,-29.61208 17.09765,-29.61133 9.42858,10e-4 17.07232,13.22255 17.09375,29.54493 v 55.79101 h 29.60352 v -68.80664 c 0,-28.44469 -23.19454,-48.23633 -44.87891,-48.23633 -6.19166,0 -25.01045,-0.23925 -35.71289,10.3125 -8.9896,-8.21852 -17.23952,-10.3125 -30.25586,-10.3125 -5.99611,0 -17.96231,3.46479 -20.73633,8.26953 v -14.6289 z"
           transform="scale(0.26458333)"
           id="path4818" />
        <path
           style="color:#000000;font-style:normal;font-variant:normal;font-weight:normal;font-stretch:normal;font-size:medium;line-height:normal;font-family:sans-serif;font-variant-ligatures:normal;font-variant-position:normal;font-variant-caps:normal;font-variant-numeric:normal;font-variant-alternates:normal;font-feature-settings:normal;text-indent:0;text-align:start;text-decoration:none;text-decoration-line:none;text-decoration-style:solid;text-decoration-color:#000000;letter-spacing:normal;word-spacing:normal;text-transform:none;writing-mode:lr-tb;direction:ltr;text-orientation:mixed;dominant-baseline:auto;baseline-shift:baseline;text-anchor:start;white-space:normal;shape-padding:0;clip-rule:nonzero;display:inline;overflow:visible;visibility:visible;opacity:1;isolation:auto;mix-blend-mode:normal;color-interpolation:sRGB;color-interpolation-filters:linearRGB;solid-color:#000000;solid-opacity:1;vector-effect:none;fill:#000000;fill-opacity:1;fill-rule:nonzero;stroke:none;stroke-width:0.63499999;stroke-linecap:butt;stroke-linejoin:miter;stroke-miterlimit:4;stroke-dasharray:none;stroke-dashoffset:0;stroke-opacity:1;color-rendering:auto;image-rendering:auto;shape-rendering:auto;text-rendering:auto;enable-background:accumulate"
           d="m -252.70847,150.75222 c -0.98431,0.0633 -13.62026,5.53554 -14.95259,9.02173 -1.40916,2.26011 1.53002,6.74594 3.02044,8.14207 1.41982,1.33 2.89118,2.29968 4.375,3.11718 2.96762,1.635 6.07764,3.00217 6.90234,3.60547 4.38422,3.20721 8.48456,6.21482 10.63281,9.78321 2.12903,3.53647 2.42848,4.15733 1.33594,7.67187 -0.0302,0.0972 -1.08544,1.21067 -2.79492,2.0293 -2.80624,1.34381 -6.65029,1.6284 -10.64844,1.41601 -2.036,-0.10816 -6.24112,-1.09204 -9.61914,-2.09179 -3.37802,-0.99976 -5.58987,-1.0352 -5.58987,-1.0352 l -1.61725,7.90432 c 0,0 1.0433,0.57691 4.68368,1.65431 3.64038,1.0774 7.90312,2.24706 11.67188,2.44727 4.60734,0.24475 9.93626,0.12788 14.95898,-2.27735 2.43204,-1.16463 6.07133,-2.98833 7.44531,-7.4082 1.68478,-5.41966 0.45169,-10.47692 -2.20898,-14.89648 -3.46265,-5.75169 -8.7433,-9.2577 -13.00195,-12.37305 -2.64946,-1.93816 -4.02249,-2.11986 -6.27408,-3.36037 -0.2422,-0.13344 -2.04454,-1.11785 -2.2387,-1.24102 0.20775,-0.81315 2.13669,-2.28235 2.3139,-2.37231 0.26233,-0.13317 3.38358,-0.38742 4.11612,-0.44397 3.34775,-0.25845 8.23596,0.51799 13.82308,0.98984 h 9.23252 l -0.54885,-8.7226 c 0,0 -1.91417,-0.83147 -7.93562,-1.36914 -4.5537,-0.40661 -14.64637,-0.34767 -17.08161,-0.1911 z"
           id="path4820"
           inkscape:connector-curvature="0"
           sodipodi:nodetypes="scsccsccccccscssccccsscccss" />
        <path
           inkscape:connector-curvature="0"
           id="path4822"
           d="m -214.09766,169.70898 c -5.9794,0 -10.92187,4.94248 -10.92187,10.92188 v 12.95312 c 0,5.97941 4.94247,10.92188 10.92187,10.92188 h 12.95508 c 5.97941,0 10.92188,-4.94247 10.92188,-10.92188 v -12.95312 c 0,-5.9794 -4.94247,-10.92188 -10.92188,-10.92188 z m 0,8.88868 h 12.95508 c 1.1749,0 2.03125,0.8583 2.03125,2.0332 v 12.95312 c 0,1.1749 -0.85635,2.03125 -2.03125,2.03125 h -12.95508 c -1.17489,0 -2.03125,-0.85635 -2.03125,-2.03125 v -12.95312 c 0,-1.1749 0.85636,-2.0332 2.03125,-2.0332 z"
           style="color:#000000;font-style:normal;font-variant:normal;font-weight:normal;font-stretch:normal;font-size:medium;line-height:normal;font-family:sans-serif;font-variant-ligatures:normal;font-variant-position:normal;font-variant-caps:normal;font-variant-numeric:normal;font-variant-alternates:normal;font-feature-settings:normal;text-indent:0;text-align:start;text-decoration:none;text-decoration-line:none;text-decoration-style:solid;text-decoration-color:#000000;letter-spacing:normal;word-spacing:normal;text-transform:none;writing-mode:lr-tb;direction:ltr;text-orientation:mixed;dominant-baseline:auto;baseline-shift:baseline;text-anchor:start;white-space:normal;shape-padding:0;clip-rule:nonzero;display:inline;overflow:visible;visibility:visible;opacity:1;isolation:auto;mix-blend-mode:normal;color-interpolation:sRGB;color-interpolation-filters:linearRGB;solid-color:#000000;solid-opacity:1;vector-effect:none;fill:#000000;fill-opacity:1;fill-rule:nonzero;stroke:none;stroke-width:0.63499999;stroke-linecap:butt;stroke-linejoin:round;stroke-miterlimit:4;stroke-dasharray:none;stroke-dashoffset:0;stroke-opacity:1;color-rendering:auto;image-rendering:auto;shape-rendering:auto;text-rendering:auto;enable-background:accumulate" />
      </g>
      <path
         sodipodi:nodetypes="ccccc"
         inkscape:connector-curvature="0"
         id="path4800"
         d="m -225.2294,164.08915 -13.16018,46.65668 h 46.83125 l -25.73254,-46.65668 z"
         style="opacity:1;fill:#ffe598;fill-opacity:1;stroke:none;stroke-width:0.26458332px;stroke-linecap:butt;stroke-linejoin:miter;stroke-opacity:1" />
      <path
         transform="scale(0.26458333)"
         id="path4826"
         d="m -796.36133,665.31836 c -7.38557,7.47901 -11.98047,17.71839 -11.98047,28.92383 v 48.95703 c 0,22.59934 18.67999,41.2793 41.2793,41.2793 h 36.42188 l -18.53321,-33.60157 h -17.88867 c -4.44053,0 -7.67773,-3.23716 -7.67773,-7.67773 v -38.67969 z m -68.57812,3.35547 -10.97461,38.91015 c 0.20871,0.32946 0.43295,0.65435 0.63281,0.98633 8.04673,13.36619 9.17811,15.7128 5.04883,28.9961 -0.11414,0.36737 -4.10343,4.57588 -10.56446,7.66992 -2.01133,0.96316 -4.16487,1.78101 -6.43554,2.4707 l -10.18946,36.12695 c 10.31023,-1.01229 20.8917,-3.38794 31.13868,-8.29492 9.19196,-4.40175 22.94763,-11.29498 28.14062,-28 6.36767,-20.48375 1.70647,-39.59693 -8.34961,-56.30078 -5.2672,-8.74916 -11.65394,-16.10764 -18.44726,-22.56445 z"
         style="color:#000000;font-style:normal;font-variant:normal;font-weight:normal;font-stretch:normal;font-size:medium;line-height:normal;font-family:sans-serif;font-variant-ligatures:normal;font-variant-position:normal;font-variant-caps:normal;font-variant-numeric:normal;font-variant-alternates:normal;font-feature-settings:normal;text-indent:0;text-align:start;text-decoration:none;text-decoration-line:none;text-decoration-style:solid;text-decoration-color:#000000;letter-spacing:normal;word-spacing:normal;text-transform:none;writing-mode:lr-tb;direction:ltr;text-orientation:mixed;dominant-baseline:auto;baseline-shift:baseline;text-anchor:start;white-space:normal;shape-padding:0;clip-rule:nonzero;display:inline;overflow:visible;visibility:visible;opacity:1;isolation:auto;mix-blend-mode:normal;color-interpolation:sRGB;color-interpolation-filters:linearRGB;solid-color:#000000;solid-opacity:1;vector-effect:none;fill:#b3b3b3;fill-opacity:1;fill-rule:nonzero;stroke:none;stroke-width:2.39999986;stroke-linecap:butt;stroke-linejoin:miter;stroke-miterlimit:4;stroke-dasharray:none;stroke-dashoffset:0;stroke-opacity:1;color-rendering:auto;image-rendering:auto;shape-rendering:auto;text-rendering:auto;enable-background:accumulate"
         inkscape:connector-curvature="0" />
      <g
         id="g4812"
         style="fill:none;stroke:#000000;stroke-width:0.63499999;stroke-miterlimit:4;stroke-dasharray:none"
         transform="translate(11.145506,3.0540906)">
        <path
           style="color:#000000;font-style:normal;font-variant:normal;font-weight:normal;font-stretch:normal;font-size:medium;line-height:normal;font-family:sans-serif;font-variant-ligatures:normal;font-variant-position:normal;font-variant-caps:normal;font-variant-numeric:normal;font-variant-alternates:normal;font-feature-settings:normal;text-indent:0;text-align:start;text-decoration:none;text-decoration-line:none;text-decoration-style:solid;text-decoration-color:#000000;letter-spacing:normal;word-spacing:normal;text-transform:none;writing-mode:lr-tb;direction:ltr;text-orientation:mixed;dominant-baseline:auto;baseline-shift:baseline;text-anchor:start;white-space:normal;shape-padding:0;clip-rule:nonzero;display:inline;overflow:visible;visibility:visible;opacity:1;isolation:auto;mix-blend-mode:normal;color-interpolation:sRGB;color-interpolation-filters:linearRGB;solid-color:#000000;solid-opacity:1;vector-effect:none;fill:none;fill-opacity:1;fill-rule:nonzero;stroke:#000000;stroke-width:0.63499999;stroke-linecap:butt;stroke-linejoin:miter;stroke-miterlimit:4;stroke-dasharray:none;stroke-dashoffset:0;stroke-opacity:1;color-rendering:auto;image-rendering:auto;shape-rendering:auto;text-rendering:auto;enable-background:accumulate"
           d="m -134.49609,171.16016 v 18.20312 c 0,7.28793 5.72804,13.54688 13.01171,13.54688 7.28369,0 13.01368,-6.25895 13.01368,-13.54688 v -18.20312 h -8.89063 v 18.20312 c 0,2.76549 -1.94355,4.65625 -4.12305,4.65625 -2.17948,0 -4.12109,-1.89074 -4.12109,-4.65625 v -18.20312 z"
           id="path4802"
           inkscape:connector-curvature="0" />
        <path
           style="color:#000000;font-style:normal;font-variant:normal;font-weight:normal;font-stretch:normal;font-size:medium;line-height:normal;font-family:sans-serif;font-variant-ligatures:normal;font-variant-position:normal;font-variant-caps:normal;font-variant-numeric:normal;font-variant-alternates:normal;font-feature-settings:normal;text-indent:0;text-align:start;text-decoration:none;text-decoration-line:none;text-decoration-style:solid;text-decoration-color:#000000;letter-spacing:normal;word-spacing:normal;text-transform:none;writing-mode:lr-tb;direction:ltr;text-orientation:mixed;dominant-baseline:auto;baseline-shift:baseline;text-anchor:start;white-space:normal;shape-padding:0;clip-rule:nonzero;display:inline;overflow:visible;visibility:visible;opacity:1;isolation:auto;mix-blend-mode:normal;color-interpolation:sRGB;color-interpolation-filters:linearRGB;solid-color:#000000;solid-opacity:1;vector-effect:none;fill:none;fill-opacity:1;fill-rule:nonzero;stroke:#000000;stroke-width:0.63499999;stroke-linecap:butt;stroke-linejoin:miter;stroke-miterlimit:4;stroke-dasharray:none;stroke-dashoffset:0;stroke-opacity:1;color-rendering:auto;image-rendering:auto;shape-rendering:auto;text-rendering:auto;enable-background:accumulate"
           d="m -100.30078,147.37695 v 54.61133 h 8.890624 v -54.61133 z"
           id="path4804"
           inkscape:connector-curvature="0" />
        <path
           id="path4806"
           transform="scale(0.26458333)"
           d="m -698.23047,640.01758 v 54.5957 68.80664 h 33.60156 v -55.72461 c 4.6e-4,-16.35466 7.65534,-29.61208 17.09766,-29.61133 9.44152,10e-4 17.09521,13.25803 17.0957,29.61133 v 55.72461 h 33.59571 v -55.72461 c 4.5e-4,-16.35466 7.65533,-29.61208 17.09765,-29.61133 9.42858,10e-4 17.07232,13.22255 17.09375,29.54493 v 55.79101 h 29.60352 v -68.80664 c 0,-28.44469 -23.19454,-48.23633 -44.87891,-48.23633 -6.19166,0 -25.01045,-0.23925 -35.71289,10.3125 -8.9896,-8.21852 -17.23952,-10.3125 -30.25586,-10.3125 -5.99611,0 -17.96231,3.46479 -20.73633,8.26953 v -14.6289 z"
           style="color:#000000;font-style:normal;font-variant:normal;font-weight:normal;font-stretch:normal;font-size:medium;line-height:normal;font-family:sans-serif;font-variant-ligatures:normal;font-variant-position:normal;font-variant-caps:normal;font-variant-numeric:normal;font-variant-alternates:normal;font-feature-settings:normal;text-indent:0;text-align:start;text-decoration:none;text-decoration-line:none;text-decoration-style:solid;text-decoration-color:#000000;letter-spacing:normal;word-spacing:normal;text-transform:none;writing-mode:lr-tb;direction:ltr;text-orientation:mixed;dominant-baseline:auto;baseline-shift:baseline;text-anchor:start;white-space:normal;shape-padding:0;clip-rule:nonzero;display:inline;overflow:visible;visibility:visible;opacity:1;isolation:auto;mix-blend-mode:normal;color-interpolation:sRGB;color-interpolation-filters:linearRGB;solid-color:#000000;solid-opacity:1;vector-effect:none;fill:none;fill-opacity:1;fill-rule:nonzero;stroke:#000000;stroke-width:2.4000001;stroke-linecap:butt;stroke-linejoin:round;stroke-miterlimit:4;stroke-dasharray:none;stroke-dashoffset:0;stroke-opacity:1;color-rendering:auto;image-rendering:auto;shape-rendering:auto;text-rendering:auto;enable-background:accumulate"
           inkscape:connector-curvature="0" />
        <path
           sodipodi:nodetypes="scsccsccccccscssccccsscccss"
           inkscape:connector-curvature="0"
           id="path4808"
           d="m -252.70847,150.75222 c -0.98431,0.0633 -13.62026,5.53554 -14.95259,9.02173 -1.40916,2.26011 1.53002,6.74594 3.02044,8.14207 1.41982,1.33 2.89118,2.29968 4.375,3.11718 2.96762,1.635 6.07764,3.00217 6.90234,3.60547 4.38422,3.20721 8.48456,6.21482 10.63281,9.78321 2.12903,3.53647 2.42848,4.15733 1.33594,7.67187 -0.0302,0.0972 -1.08544,1.21067 -2.79492,2.0293 -2.80624,1.34381 -6.65029,1.6284 -10.64844,1.41601 -2.036,-0.10816 -6.24112,-1.09204 -9.61914,-2.09179 -3.37802,-0.99976 -5.58987,-1.0352 -5.58987,-1.0352 l -1.61725,7.90432 c 0,0 1.0433,0.57691 4.68368,1.65431 3.64038,1.0774 7.90312,2.24706 11.67188,2.44727 4.60734,0.24475 9.93626,0.12788 14.95898,-2.27735 2.43204,-1.16463 6.07133,-2.98833 7.44531,-7.4082 1.68478,-5.41966 0.45169,-10.47692 -2.20898,-14.89648 -3.46265,-5.75169 -8.7433,-9.2577 -13.00195,-12.37305 -2.64946,-1.93816 -4.02249,-2.11986 -6.27408,-3.36037 -0.2422,-0.13344 -2.04454,-1.11785 -2.2387,-1.24102 0.20775,-0.81315 2.13669,-2.28235 2.3139,-2.37231 0.26233,-0.13317 3.38358,-0.38742 4.11612,-0.44397 3.34775,-0.25845 8.23596,0.51799 13.82308,0.98984 h 9.23252 l -0.54885,-8.7226 c 0,0 -1.91417,-0.83147 -7.93562,-1.36914 -4.5537,-0.40661 -14.64637,-0.34767 -17.08161,-0.1911 z"
           style="color:#000000;font-style:normal;font-variant:normal;font-weight:normal;font-stretch:normal;font-size:medium;line-height:normal;font-family:sans-serif;font-variant-ligatures:normal;font-variant-position:normal;font-variant-caps:normal;font-variant-numeric:normal;font-variant-alternates:normal;font-feature-settings:normal;text-indent:0;text-align:start;text-decoration:none;text-decoration-line:none;text-decoration-style:solid;text-decoration-color:#000000;letter-spacing:normal;word-spacing:normal;text-transform:none;writing-mode:lr-tb;direction:ltr;text-orientation:mixed;dominant-baseline:auto;baseline-shift:baseline;text-anchor:start;white-space:normal;shape-padding:0;clip-rule:nonzero;display:inline;overflow:visible;visibility:visible;opacity:1;isolation:auto;mix-blend-mode:normal;color-interpolation:sRGB;color-interpolation-filters:linearRGB;solid-color:#000000;solid-opacity:1;vector-effect:none;fill:none;fill-opacity:1;fill-rule:nonzero;stroke:#000000;stroke-width:0.63499999;stroke-linecap:butt;stroke-linejoin:miter;stroke-miterlimit:4;stroke-dasharray:none;stroke-dashoffset:0;stroke-opacity:1;color-rendering:auto;image-rendering:auto;shape-rendering:auto;text-rendering:auto;enable-background:accumulate" />
        <path
           style="color:#000000;font-style:normal;font-variant:normal;font-weight:normal;font-stretch:normal;font-size:medium;line-height:normal;font-family:sans-serif;font-variant-ligatures:normal;font-variant-position:normal;font-variant-caps:normal;font-variant-numeric:normal;font-variant-alternates:normal;font-feature-settings:normal;text-indent:0;text-align:start;text-decoration:none;text-decoration-line:none;text-decoration-style:solid;text-decoration-color:#000000;letter-spacing:normal;word-spacing:normal;text-transform:none;writing-mode:lr-tb;direction:ltr;text-orientation:mixed;dominant-baseline:auto;baseline-shift:baseline;text-anchor:start;white-space:normal;shape-padding:0;clip-rule:nonzero;display:inline;overflow:visible;visibility:visible;opacity:1;isolation:auto;mix-blend-mode:normal;color-interpolation:sRGB;color-interpolation-filters:linearRGB;solid-color:#000000;solid-opacity:1;vector-effect:none;fill:none;fill-opacity:1;fill-rule:nonzero;stroke:#000000;stroke-width:0.63499999;stroke-linecap:butt;stroke-linejoin:round;stroke-miterlimit:4;stroke-dasharray:none;stroke-dashoffset:0;stroke-opacity:1;color-rendering:auto;image-rendering:auto;shape-rendering:auto;text-rendering:auto;enable-background:accumulate"
           d="m -214.09766,169.70898 c -5.9794,0 -10.92187,4.94248 -10.92187,10.92188 v 12.95312 c 0,5.97941 4.94247,10.92188 10.92187,10.92188 h 12.95508 c 5.97941,0 10.92188,-4.94247 10.92188,-10.92188 v -12.95312 c 0,-5.9794 -4.94247,-10.92188 -10.92188,-10.92188 z m 0,8.88868 h 12.95508 c 1.1749,0 2.03125,0.8583 2.03125,2.0332 v 12.95312 c 0,1.1749 -0.85635,2.03125 -2.03125,2.03125 h -12.95508 c -1.17489,0 -2.03125,-0.85635 -2.03125,-2.03125 v -12.95312 c 0,-1.1749 0.85636,-2.0332 2.03125,-2.0332 z"
           id="path4810"
           inkscape:connector-curvature="0" />
      </g>
    </g>
    <g
       id="g4943"
       transform="translate(-48.508515,-134.4761)"
       inkscape:export-xdpi="204.79938"
       inkscape:export-ydpi="204.79938">
      <rect
         style="opacity:1;fill:#6eebcb;fill-opacity:1;fill-rule:nonzero;stroke:none;stroke-width:8.88999939;stroke-linecap:butt;stroke-linejoin:round;stroke-miterlimit:4;stroke-dasharray:none;stroke-opacity:1"
         id="rect4864"
         width="63.5"
         height="63.5"
         x="-36.686062"
         y="201.01131" />
      <path
         style="color:#000000;font-style:normal;font-variant:normal;font-weight:normal;font-stretch:normal;font-size:medium;line-height:normal;font-family:sans-serif;font-variant-ligatures:normal;font-variant-position:normal;font-variant-caps:normal;font-variant-numeric:normal;font-variant-alternates:normal;font-feature-settings:normal;text-indent:0;text-align:start;text-decoration:none;text-decoration-line:none;text-decoration-style:solid;text-decoration-color:#000000;letter-spacing:normal;word-spacing:normal;text-transform:none;writing-mode:lr-tb;direction:ltr;text-orientation:mixed;dominant-baseline:auto;baseline-shift:baseline;text-anchor:start;white-space:normal;shape-padding:0;clip-rule:nonzero;display:inline;overflow:visible;visibility:visible;opacity:1;isolation:auto;mix-blend-mode:normal;color-interpolation:sRGB;color-interpolation-filters:linearRGB;solid-color:#000000;solid-opacity:1;vector-effect:none;fill:#000000;fill-opacity:1;fill-rule:nonzero;stroke:none;stroke-width:0.63499999;stroke-linecap:butt;stroke-linejoin:miter;stroke-miterlimit:4;stroke-dasharray:none;stroke-dashoffset:0;stroke-opacity:1;color-rendering:auto;image-rendering:auto;shape-rendering:auto;text-rendering:auto;enable-background:accumulate"
         d="m -12.438715,207.57179 c -0.98431,0.0633 -13.62026,5.53554 -14.95259,9.02173 -1.40916,2.26011 1.53002,6.74594 3.02044,8.14207 1.41982,1.33 2.89118,2.29968 4.375,3.11718 2.96762,1.635 6.07764,3.00217 6.90234,3.60547 4.38422,3.20721 8.48456,6.21482 10.63281,9.78321 2.12903,3.53647 2.42848,4.15733 1.33594,7.67187 -0.0302,0.0972 -1.08544,1.21067 -2.79492,2.0293 -2.80624,1.34381 -6.65029,1.6284 -10.64844,1.41601 -2.036,-0.10816 -6.24112,-1.09204 -9.61914,-2.09179 -3.37802,-0.99976 -5.58987,-1.0352 -5.58987,-1.0352 l -1.61725,7.90432 c 0,0 1.0433,0.57691 4.68368,1.65431 3.64038,1.0774 7.90312,2.24706 11.67188,2.44727 4.60734,0.24475 9.93626,0.12788 14.95898,-2.27735 2.43204,-1.16463 6.07133,-2.98833 7.44531,-7.4082 1.68478,-5.41966 0.45169,-10.47692 -2.20898,-14.89648 -3.46265,-5.75169 -8.7433,-9.2577 -13.00195,-12.37305 -2.64946,-1.93816 -4.02249,-2.11986 -6.27408,-3.36037 -0.2422,-0.13344 -2.04454,-1.11785 -2.2387,-1.24102 0.20775,-0.81315 2.13669,-2.28235 2.3139,-2.37231 0.26233,-0.13317 3.38358,-0.38742 4.11612,-0.44397 3.34775,-0.25845 8.23596,0.51799 13.82308,0.98984 h 9.23252 l -0.54885,-8.7226 c 0,0 -1.91417,-0.83147 -7.93562,-1.36914 -4.5537,-0.40661 -14.64637,-0.34767 -17.08161,-0.1911 z"
         id="path4872"
         inkscape:connector-curvature="0"
         sodipodi:nodetypes="scsccsccccccscssccccsscccss" />
      <path
         id="path4878"
         transform="scale(0.26458333)"
         d="m 14.720703,823.38672 -49.740234,176.3418 H 101.34375 V 926.04688 L 44.724609,823.38672 Z"
         style="opacity:1;fill:#ffe598;fill-opacity:1;stroke:none;stroke-width:0.99999994px;stroke-linecap:butt;stroke-linejoin:miter;stroke-opacity:1"
         inkscape:connector-curvature="0" />
      <path
         id="path4880"
         d="m 0.275685,230.68543 -2.903699,10.29498 c 0.05522,0.0872 0.114552,0.17313 0.167431,0.26096 2.129031,3.53647 2.428375,4.15735 1.335836,7.67189 -0.0302,0.0972 -1.085699,1.2107 -2.79518,2.02933 -0.532164,0.25484 -1.101955,0.47123 -1.702736,0.65371 l -2.6959614,9.55858 c 2.7279154,-0.26783 5.5275954,-0.89639 8.2387754,-2.19469 2.43204,-1.16463 6.071561,-2.98847 7.445539,-7.40834 1.68478,-5.41965 0.451504,-10.47668 -2.209167,-14.89624 -1.393614,-2.31489 -3.083439,-4.26182 -4.880838,-5.97018 z"
         style="color:#000000;font-style:normal;font-variant:normal;font-weight:normal;font-stretch:normal;font-size:medium;line-height:normal;font-family:sans-serif;font-variant-ligatures:normal;font-variant-position:normal;font-variant-caps:normal;font-variant-numeric:normal;font-variant-alternates:normal;font-feature-settings:normal;text-indent:0;text-align:start;text-decoration:none;text-decoration-line:none;text-decoration-style:solid;text-decoration-color:#000000;letter-spacing:normal;word-spacing:normal;text-transform:none;writing-mode:lr-tb;direction:ltr;text-orientation:mixed;dominant-baseline:auto;baseline-shift:baseline;text-anchor:start;white-space:normal;shape-padding:0;clip-rule:nonzero;display:inline;overflow:visible;visibility:visible;opacity:1;isolation:auto;mix-blend-mode:normal;color-interpolation:sRGB;color-interpolation-filters:linearRGB;solid-color:#000000;solid-opacity:1;vector-effect:none;fill:#b3b3b3;fill-opacity:1;fill-rule:nonzero;stroke:none;stroke-width:0.63499993;stroke-linecap:butt;stroke-linejoin:miter;stroke-miterlimit:4;stroke-dasharray:none;stroke-dashoffset:0;stroke-opacity:1;color-rendering:auto;image-rendering:auto;shape-rendering:auto;text-rendering:auto;enable-background:accumulate"
         inkscape:connector-curvature="0" />
      <path
         sodipodi:nodetypes="scsccsccccccscssccccsscccss"
         inkscape:connector-curvature="0"
         id="path4888"
         d="m -12.438715,207.57179 c -0.98431,0.0633 -13.62026,5.53554 -14.95259,9.02173 -1.40916,2.26011 1.53002,6.74594 3.02044,8.14207 1.41982,1.33 2.89118,2.29968 4.375,3.11718 2.96762,1.635 6.07764,3.00217 6.90234,3.60547 4.38422,3.20721 8.48456,6.21482 10.63281,9.78321 2.12903,3.53647 2.42848,4.15733 1.33594,7.67187 -0.0302,0.0972 -1.08544,1.21067 -2.79492,2.0293 -2.80624,1.34381 -6.65029,1.6284 -10.64844,1.41601 -2.036,-0.10816 -6.24112,-1.09204 -9.61914,-2.09179 -3.37802,-0.99976 -5.58987,-1.0352 -5.58987,-1.0352 l -1.61725,7.90432 c 0,0 1.0433,0.57691 4.68368,1.65431 3.64038,1.0774 7.90312,2.24706 11.67188,2.44727 4.60734,0.24475 9.93626,0.12788 14.95898,-2.27735 2.43204,-1.16463 6.07133,-2.98833 7.44531,-7.4082 1.68478,-5.41966 0.45169,-10.47692 -2.20898,-14.89648 -3.46265,-5.75169 -8.7433,-9.2577 -13.00195,-12.37305 -2.64946,-1.93816 -4.02249,-2.11986 -6.27408,-3.36037 -0.2422,-0.13344 -2.04454,-1.11785 -2.2387,-1.24102 0.20775,-0.81315 2.13669,-2.28235 2.3139,-2.37231 0.26233,-0.13317 3.38358,-0.38742 4.11612,-0.44397 3.34775,-0.25845 8.23596,0.51799 13.82308,0.98984 h 9.23252 l -0.54885,-8.7226 c 0,0 -1.91417,-0.83147 -7.93562,-1.36914 -4.5537,-0.40661 -14.64637,-0.34767 -17.08161,-0.1911 z"
         style="color:#000000;font-style:normal;font-variant:normal;font-weight:normal;font-stretch:normal;font-size:medium;line-height:normal;font-family:sans-serif;font-variant-ligatures:normal;font-variant-position:normal;font-variant-caps:normal;font-variant-numeric:normal;font-variant-alternates:normal;font-feature-settings:normal;text-indent:0;text-align:start;text-decoration:none;text-decoration-line:none;text-decoration-style:solid;text-decoration-color:#000000;letter-spacing:normal;word-spacing:normal;text-transform:none;writing-mode:lr-tb;direction:ltr;text-orientation:mixed;dominant-baseline:auto;baseline-shift:baseline;text-anchor:start;white-space:normal;shape-padding:0;clip-rule:nonzero;display:inline;overflow:visible;visibility:visible;opacity:1;isolation:auto;mix-blend-mode:normal;color-interpolation:sRGB;color-interpolation-filters:linearRGB;solid-color:#000000;solid-opacity:1;vector-effect:none;fill:none;fill-opacity:1;fill-rule:nonzero;stroke:#000000;stroke-width:0.63499999;stroke-linecap:butt;stroke-linejoin:miter;stroke-miterlimit:4;stroke-dasharray:none;stroke-dashoffset:0;stroke-opacity:1;color-rendering:auto;image-rendering:auto;shape-rendering:auto;text-rendering:auto;enable-background:accumulate" />
    </g>
  </g>
</svg>
